<svg xmlns="http://www.w3.org/2000/svg" xmlns:xlink="http://www.w3.org/1999/xlink" contentStyleType="text/css" data-diagram-type="DESCRIPTION" height="620.8333px" preserveAspectRatio="none" style="width:1179px;height:620px;" version="1.1" viewBox="0 0 1179 620" width="1179.1667px" zoomAndPan="magnify"><defs><linearGradient id="g1sqshrgn3xijr0" x1="50%" x2="50%" y1="0%" y2="100%"><stop offset="0%" stop-color="#F18E3E"/><stop offset="100%" stop-color="#EC7211"/></linearGradient></defs><g><!--cluster Frontend--><g class="cluster" data-entity="Frontend" data-source-line="2" data-uid="ent0002" id="cluster_Frontend"><path d="M398.9583,6.25 L471.7814,6.25 A6.25,6.25 0 0 1 475.9481,10.4167 L483.2397,37.4674 L546.875,37.4674 A4.1667,4.1667 0 0 1 551.0417,41.6341 L551.0417,118.7187 A4.1667,4.1667 0 0 1 546.875,122.8854 L398.9583,122.8854 A4.1667,4.1667 0 0 1 394.7917,118.7187 L394.7917,10.4167 A4.1667,4.1667 0 0 1 398.9583,6.25" fill="none" style="stroke:#4E5D6C;stroke-width:2.0833;"/><line style="stroke:#4E5D6C;stroke-width:2.0833;" x1="394.7917" x2="483.2397" y1="37.4674" y2="37.4674"/><text fill="#4E5D6C" font-family="Verdana" font-size="12.5" font-weight="bold" lengthAdjust="spacing" textLength="64.4897" x="404.1667" y="25.1444">Frontend</text></g><!--cluster API Gateway--><g class="cluster" data-entity="API Gateway" data-source-line="6" data-uid="ent0004" id="cluster_API Gateway"><path d="M362.5,182.2604 L459.9508,182.2604 A6.25,6.25 0 0 1 464.1174,186.4271 L471.4091,213.4779 L583.3333,213.4779 A4.1667,4.1667 0 0 1 587.5,217.6445 L587.5,294.7292 A4.1667,4.1667 0 0 1 583.3333,298.8958 L362.5,298.8958 A4.1667,4.1667 0 0 1 358.3333,294.7292 L358.3333,186.4271 A4.1667,4.1667 0 0 1 362.5,182.2604" fill="none" style="stroke:#4E5D6C;stroke-width:2.0833;"/><line style="stroke:#4E5D6C;stroke-width:2.0833;" x1="358.3333" x2="471.4091" y1="213.4779" y2="213.4779"/><text fill="#4E5D6C" font-family="Verdana" font-size="12.5" font-weight="bold" lengthAdjust="spacing" textLength="89.1174" x="367.7083" y="201.1549">API Gateway</text></g><!--cluster Backend (Nest.js)--><g class="cluster" data-entity="Backend (Nest.js)" data-source-line="10" data-uid="ent0006" id="cluster_Backend (Nest.js)"><path d="M10.4167,358.2708 L143.3655,358.2708 A6.25,6.25 0 0 1 147.5321,362.4375 L154.8238,389.4883 L921.875,389.4883 A4.1667,4.1667 0 0 1 926.0417,393.6549 L926.0417,470.7396 A4.1667,4.1667 0 0 1 921.875,474.9063 L10.4167,474.9063 A4.1667,4.1667 0 0 1 6.25,470.7396 L6.25,362.4375 A4.1667,4.1667 0 0 1 10.4167,358.2708" fill="none" style="stroke:#4E5D6C;stroke-width:2.0833;"/><line style="stroke:#4E5D6C;stroke-width:2.0833;" x1="6.25" x2="154.8238" y1="389.4883" y2="389.4883"/><text fill="#4E5D6C" font-family="Verdana" font-size="12.5" font-weight="bold" lengthAdjust="spacing" textLength="124.6155" x="15.625" y="377.1653">Backend (Nest.js)</text></g><!--entity FrontendApp--><g class="entity" data-entity="FrontendApp" data-source-line="3" data-uid="ent0003" id="entity_FrontendApp"><rect fill="url(#g1sqshrgn3xijr0)" height="56.2174" rx="4.1667" ry="4.1667" style="stroke:#EC7211;stroke-width:1.0417;" width="123.7752" x="411.0313" y="50"/><rect fill="url(#g1sqshrgn3xijr0)" height="10.4167" style="stroke:#EC7211;stroke-width:1.0417;" width="15.625" x="513.9731" y="55.2083"/><rect fill="url(#g1sqshrgn3xijr0)" height="2.0833" style="stroke:#EC7211;stroke-width:1.0417;" width="4.1667" x="511.8898" y="57.2917"/><rect fill="url(#g1sqshrgn3xijr0)" height="2.0833" style="stroke:#EC7211;stroke-width:1.0417;" width="4.1667" x="511.8898" y="61.4583"/><text fill="#FFFFFF" font-family="Verdana" font-size="12.5" lengthAdjust="spacing" textLength="71.6919" x="431.8646" y="87.6444">Next.js App</text></g><!--entity APIGateway--><g class="entity" data-entity="APIGateway" data-source-line="7" data-uid="ent0005" id="entity_APIGateway"><rect fill="url(#g1sqshrgn3xijr0)" height="56.2174" rx="4.1667" ry="4.1667" style="stroke:#EC7211;stroke-width:1.0417;" width="196.4132" x="374.7083" y="226.0104"/><rect fill="url(#g1sqshrgn3xijr0)" height="10.4167" style="stroke:#EC7211;stroke-width:1.0417;" width="15.625" x="550.2882" y="231.2187"/><rect fill="url(#g1sqshrgn3xijr0)" height="2.0833" style="stroke:#EC7211;stroke-width:1.0417;" width="4.1667" x="548.2048" y="233.3021"/><rect fill="url(#g1sqshrgn3xijr0)" height="2.0833" style="stroke:#EC7211;stroke-width:1.0417;" width="4.1667" x="548.2048" y="237.4688"/><text fill="#FFFFFF" font-family="Verdana" font-size="12.5" lengthAdjust="spacing" textLength="144.3298" x="395.5417" y="263.6549">Nest.js HTTP Controller</text></g><!--entity AuthModule--><g class="entity" data-entity="AuthModule" data-source-line="11" data-uid="ent0007" id="entity_AuthModule"><rect fill="url(#g1sqshrgn3xijr0)" height="56.2174" rx="4.1667" ry="4.1667" style="stroke:#EC7211;stroke-width:1.0417;" width="130.8065" x="23.1354" y="402.0208"/><rect fill="url(#g1sqshrgn3xijr0)" height="10.4167" style="stroke:#EC7211;stroke-width:1.0417;" width="15.625" x="133.1086" y="407.2292"/><rect fill="url(#g1sqshrgn3xijr0)" height="2.0833" style="stroke:#EC7211;stroke-width:1.0417;" width="4.1667" x="131.0252" y="409.3125"/><rect fill="url(#g1sqshrgn3xijr0)" height="2.0833" style="stroke:#EC7211;stroke-width:1.0417;" width="4.1667" x="131.0252" y="413.4792"/><text fill="#FFFFFF" font-family="Verdana" font-size="12.5" lengthAdjust="spacing" textLength="78.7231" x="43.9688" y="439.6653">Auth Module</text></g><!--entity UsersModule--><g class="entity" data-entity="UsersModule" data-source-line="12" data-uid="ent0008" id="entity_UsersModule"><rect fill="url(#g1sqshrgn3xijr0)" height="56.2174" rx="4.1667" ry="4.1667" style="stroke:#EC7211;stroke-width:1.0417;" width="136.5133" x="190.0729" y="402.0208"/><rect fill="url(#g1sqshrgn3xijr0)" height="10.4167" style="stroke:#EC7211;stroke-width:1.0417;" width="15.625" x="305.7528" y="407.2292"/><rect fill="url(#g1sqshrgn3xijr0)" height="2.0833" style="stroke:#EC7211;stroke-width:1.0417;" width="4.1667" x="303.6695" y="409.3125"/><rect fill="url(#g1sqshrgn3xijr0)" height="2.0833" style="stroke:#EC7211;stroke-width:1.0417;" width="4.1667" x="303.6695" y="413.4792"/><text fill="#FFFFFF" font-family="Verdana" font-size="12.5" lengthAdjust="spacing" textLength="84.4299" x="210.9063" y="439.6653">Users Module</text></g><!--entity EventsModule--><g class="entity" data-entity="EventsModule" data-source-line="13" data-uid="ent0009" id="entity_EventsModule"><rect fill="url(#g1sqshrgn3xijr0)" height="56.2174" rx="4.1667" ry="4.1667" style="stroke:#EC7211;stroke-width:1.0417;" width="143.8314" x="363.5" y="402.0208"/><rect fill="url(#g1sqshrgn3xijr0)" height="10.4167" style="stroke:#EC7211;stroke-width:1.0417;" width="15.625" x="486.498" y="407.2292"/><rect fill="url(#g1sqshrgn3xijr0)" height="2.0833" style="stroke:#EC7211;stroke-width:1.0417;" width="4.1667" x="484.4147" y="409.3125"/><rect fill="url(#g1sqshrgn3xijr0)" height="2.0833" style="stroke:#EC7211;stroke-width:1.0417;" width="4.1667" x="484.4147" y="413.4792"/><text fill="#FFFFFF" font-family="Verdana" font-size="12.5" lengthAdjust="spacing" textLength="91.748" x="384.3333" y="439.6653">Events Module</text></g><!--entity SearchModule--><g class="entity" data-entity="SearchModule" data-source-line="14" data-uid="ent0010" id="entity_SearchModule"><rect fill="url(#g1sqshrgn3xijr0)" height="56.2174" rx="4.1667" ry="4.1667" style="stroke:#EC7211;stroke-width:1.0417;" width="144.7286" x="544.3021" y="402.0208"/><rect fill="url(#g1sqshrgn3xijr0)" height="10.4167" style="stroke:#EC7211;stroke-width:1.0417;" width="15.625" x="668.1973" y="407.2292"/><rect fill="url(#g1sqshrgn3xijr0)" height="2.0833" style="stroke:#EC7211;stroke-width:1.0417;" width="4.1667" x="666.114" y="409.3125"/><rect fill="url(#g1sqshrgn3xijr0)" height="2.0833" style="stroke:#EC7211;stroke-width:1.0417;" width="4.1667" x="666.114" y="413.4792"/><text fill="#FFFFFF" font-family="Verdana" font-size="12.5" lengthAdjust="spacing" textLength="92.6453" x="565.1354" y="439.6653">Search Module</text></g><!--entity RegModule--><g class="entity" data-entity="RegModule" data-source-line="15" data-uid="ent0011" id="entity_RegModule"><rect fill="url(#g1sqshrgn3xijr0)" height="56.2174" rx="4.1667" ry="4.1667" style="stroke:#EC7211;stroke-width:1.0417;" width="183.962" x="725.7292" y="402.0208"/><rect fill="url(#g1sqshrgn3xijr0)" height="10.4167" style="stroke:#EC7211;stroke-width:1.0417;" width="15.625" x="888.8578" y="407.2292"/><rect fill="url(#g1sqshrgn3xijr0)" height="2.0833" style="stroke:#EC7211;stroke-width:1.0417;" width="4.1667" x="886.7745" y="409.3125"/><rect fill="url(#g1sqshrgn3xijr0)" height="2.0833" style="stroke:#EC7211;stroke-width:1.0417;" width="4.1667" x="886.7745" y="413.4792"/><text fill="#FFFFFF" font-family="Verdana" font-size="12.5" lengthAdjust="spacing" textLength="131.8787" x="746.5625" y="439.6653">Registrations Module</text></g><!--entity Postgres--><g class="entity" data-entity="Postgres" data-source-line="18" data-uid="ent0012" id="entity_Postgres"><path d="M563.0729,559.2813 C563.0729,548.8646 647.9118,548.8646 647.9118,548.8646 C647.9118,548.8646 732.7507,548.8646 732.7507,559.2813 L732.7507,593.6237 C732.7507,604.0404 647.9118,604.0404 647.9118,604.0404 C647.9118,604.0404 563.0729,604.0404 563.0729,593.6237 L563.0729,559.2813" fill="url(#g1sqshrgn3xijr0)" style="stroke:#EC7211;stroke-width:1.0417;"/><path d="M563.0729,559.2813 C563.0729,569.6979 647.9118,569.6979 647.9118,569.6979 C647.9118,569.6979 732.7507,569.6979 732.7507,559.2813" fill="none" style="stroke:#EC7211;stroke-width:1.0417;"/><text fill="#4E5D6C" font-family="Verdana" font-size="12.5" lengthAdjust="spacing" textLength="138.4277" x="578.6979" y="590.6757">PostgreSQL + PostGIS</text></g><!--entity Mongo--><g class="entity" data-entity="Mongo" data-source-line="20" data-uid="ent0013" id="entity_Mongo"><path d="M80.4479,559.2813 C80.4479,548.8646 154.1662,548.8646 154.1662,548.8646 C154.1662,548.8646 227.8844,548.8646 227.8844,559.2813 L227.8844,593.6237 C227.8844,604.0404 154.1662,604.0404 154.1662,604.0404 C154.1662,604.0404 80.4479,604.0404 80.4479,593.6237 L80.4479,559.2813" fill="url(#g1sqshrgn3xijr0)" style="stroke:#EC7211;stroke-width:1.0417;"/><path d="M80.4479,559.2813 C80.4479,569.6979 154.1662,569.6979 154.1662,569.6979 C154.1662,569.6979 227.8844,569.6979 227.8844,559.2813" fill="none" style="stroke:#EC7211;stroke-width:1.0417;"/><text fill="#4E5D6C" font-family="Verdana" font-size="12.5" lengthAdjust="spacing" textLength="116.1865" x="96.0729" y="590.6757">MongoDB (Events)</text></g><!--link FrontendApp to APIGateway--><g class="link" data-entity-1="FrontendApp" data-entity-2="APIGateway" data-source-line="22" data-uid="lnk14" id="link_FrontendApp_APIGateway"><path d="M472.9167,106.7188 C472.9167,139.2813 472.9167,186.8854 472.9167,219.4063" fill="none" id="FrontendApp-to-APIGateway" style="stroke:#EC7211;stroke-width:3.125;"/><polygon fill="#EC7211" points="472.9167,225.6563,477.0833,216.2813,472.9167,220.4479,468.75,216.2813,472.9167,225.6563" style="stroke:#EC7211;stroke-width:3.125;"/><text fill="#4E5D6C" font-family="Verdana" font-size="12.5" lengthAdjust="spacing" textLength="104.6387" x="479.1667" y="157.4049">HTTP/JSON (JWT)</text></g><!--link APIGateway to AuthModule--><g class="link" data-entity-1="APIGateway" data-entity-2="AuthModule" data-source-line="23" data-uid="lnk15" id="link_APIGateway_AuthModule"><path d="M374.3646,256.3229 C271.2188,259.875 119.1979,272.5208 82.2917,315.5625 C62.125,339.0938 67.0857,370.5223 75.4503,395.9077" fill="none" id="APIGateway-to-AuthModule" style="stroke:#EC7211;stroke-width:3.125;"/><polygon fill="#EC7211" points="77.4063,401.8438,78.4297,391.6357,75.7763,396.897,70.515,394.2436,77.4063,401.8438" style="stroke:#EC7211;stroke-width:3.125;"/><text fill="#4E5D6C" font-family="Verdana" font-size="12.5" lengthAdjust="spacing" textLength="214.0259" x="88.5417" y="333.4153">validar credenciales / emitir token</text></g><!--link APIGateway to UsersModule--><g class="link" data-entity-1="APIGateway" data-entity-2="UsersModule" data-source-line="24" data-uid="lnk16" id="link_APIGateway_UsersModule"><path d="M396.2083,282.6042 C377.2604,291.4271 357.8021,302.4063 341.6667,315.5625 C312.1146,339.6771 290.777,371.1594 276.1624,396.2948" fill="none" id="APIGateway-to-UsersModule" style="stroke:#EC7211;stroke-width:3.125;"/><polygon fill="#EC7211" points="273.0208,401.6979,281.3352,395.6877,275.6388,397.1954,274.1311,391.4989,273.0208,401.6979" style="stroke:#EC7211;stroke-width:3.125;"/><text fill="#4E5D6C" font-family="Verdana" font-size="12.5" lengthAdjust="spacing" textLength="92.9504" x="347.9167" y="333.4153">CRUD usuarios</text></g><!--link APIGateway to EventsModule--><g class="link" data-entity-1="APIGateway" data-entity-2="EventsModule" data-source-line="25" data-uid="lnk17" id="link_APIGateway_EventsModule"><path d="M466.9792,282.7188 C459.9479,315.2917 449.6612,363.0363 442.6508,395.5467" fill="none" id="APIGateway-to-EventsModule" style="stroke:#EC7211;stroke-width:3.125;"/><polygon fill="#EC7211" points="441.3333,401.6563,447.3825,393.3702,442.4312,396.5649,439.2365,391.6136,441.3333,401.6563" style="stroke:#EC7211;stroke-width:3.125;"/><text fill="#4E5D6C" font-family="Verdana" font-size="12.5" lengthAdjust="spacing" textLength="89.9231" x="465.625" y="333.4153">CRUD eventos</text></g><!--link APIGateway to SearchModule--><g class="link" data-entity-1="APIGateway" data-entity-2="SearchModule" data-source-line="26" data-uid="lnk18" id="link_APIGateway_SearchModule"><path d="M529.7708,282.4792 C544.2292,291.4688 558.7813,302.5521 569.7917,315.5625 C591.1458,340.7917 602.1907,371.0502 608.8782,395.769" fill="none" id="APIGateway-to-SearchModule" style="stroke:#EC7211;stroke-width:3.125;"/><polygon fill="#EC7211" points="610.5104,401.8021,612.0842,391.6643,609.1502,396.7745,604.04,393.8406,610.5104,401.8021" style="stroke:#EC7211;stroke-width:3.125;"/><text fill="#4E5D6C" font-family="Verdana" font-size="12.5" lengthAdjust="spacing" textLength="140.6738" x="592.7083" y="333.4153">B&#250;squeda geoespacila</text></g><!--link APIGateway to RegModule--><g class="link" data-entity-1="APIGateway" data-entity-2="RegModule" data-source-line="27" data-uid="lnk19" id="link_APIGateway_RegModule"><path d="M571.5104,258.1146 C627.6354,264.1042 696.7188,279.1771 747.9167,315.5625 C777.8958,336.875 795.2211,369.7156 805.8148,395.9343" fill="none" id="APIGateway-to-RegModule" style="stroke:#EC7211;stroke-width:3.125;"/><polygon fill="#EC7211" points="808.1563,401.7292,808.5073,391.4759,806.2051,396.9001,800.7809,394.5978,808.1563,401.7292" style="stroke:#EC7211;stroke-width:3.125;"/><text fill="#4E5D6C" font-family="Verdana" font-size="12.5" lengthAdjust="spacing" textLength="134.1736" x="779.1667" y="333.4153">inscribir / desinscribir</text></g><!--link EventsModule to Mongo--><g class="link" data-entity-1="EventsModule" data-entity-2="Mongo" data-source-line="29" data-uid="lnk20" id="link_EventsModule_Mongo"><path d="M397.0833,458.4896 C381.5833,468.0833 363.0521,477.8229 344.7917,483.2396 C312.7917,492.7396 222.5729,473.0729 194.7917,491.5729 C175.4063,504.4896 166.6653,523.3776 161.2486,542.7109" fill="none" id="EventsModule-to-Mongo" style="stroke:#EC7211;stroke-width:3.125;"/><polygon fill="#EC7211" points="159.5625,548.7292,166.1039,540.8259,160.9676,543.714,158.0796,538.5777,159.5625,548.7292" style="stroke:#EC7211;stroke-width:3.125;"/><text fill="#4E5D6C" font-family="Verdana" font-size="12.5" lengthAdjust="spacing" textLength="195.166" x="201.0417" y="509.4257">persistir metadatos de eventos</text></g><!--link EventsModule to Postgres--><g class="link" data-entity-1="EventsModule" data-entity-2="Postgres" data-source-line="30" data-uid="lnk21" id="link_EventsModule_Postgres"><path d="M419.7917,458.7396 C411.6458,477.1563 405.7917,500.9792 418.75,517.6146 C436.6563,540.5938 499.0342,554.8937 556.5342,563.9354" fill="none" id="EventsModule-to-Postgres" style="stroke:#EC7211;stroke-width:3.125;"/><polygon fill="#EC7211" points="562.7083,564.9063,554.0944,559.3339,557.5632,564.0972,552.7999,567.566,562.7083,564.9063" style="stroke:#EC7211;stroke-width:3.125;"/><text fill="#4E5D6C" font-family="Verdana" font-size="12.5" lengthAdjust="spacing" textLength="191.6626" x="425" y="509.4257">guardar ubicaci&#243;n geoespacial</text></g><!--link SearchModule to Postgres--><g class="link" data-entity-1="SearchModule" data-entity-2="Postgres" data-source-line="31" data-uid="lnk22" id="link_SearchModule_Postgres"><path d="M622.6146,458.6458 C628.2188,484.4688 635.2187,516.7875 640.7708,542.4229" fill="none" id="SearchModule-to-Postgres" style="stroke:#EC7211;stroke-width:3.125;"/><polygon fill="#EC7211" points="642.0938,548.5313,644.1816,538.4867,640.9913,543.4409,636.0371,540.2506,642.0938,548.5313" style="stroke:#EC7211;stroke-width:3.125;"/><text fill="#4E5D6C" font-family="Verdana" font-size="12.5" lengthAdjust="spacing" textLength="257.2998" x="640.625" y="509.4257">consultar eventos cercanos (ST_DWithin)</text></g><!--link RegModule to Postgres--><g class="link" data-entity-1="RegModule" data-entity-2="Postgres" data-source-line="32" data-uid="lnk23" id="link_RegModule_Postgres"><path d="M880.1563,458.6875 C907.5938,474.6458 930.0313,495.8438 912.5,517.6146 C890.1667,545.3542 807.8147,559.8096 739.2314,567.5491" fill="none" id="RegModule-to-Postgres" style="stroke:#EC7211;stroke-width:3.125;"/><polygon fill="#EC7211" points="733.0208,568.25,742.8039,571.3391,738.1963,567.666,741.8695,563.0583,733.0208,568.25" style="stroke:#EC7211;stroke-width:3.125;"/><text fill="#4E5D6C" font-family="Verdana" font-size="12.5" lengthAdjust="spacing" textLength="242.5903" x="923.9583" y="509.4257">guardar inscripciones (userId, eventId)</text></g><!--SRC=[TPBFRjD04CRl-nH3JhOWvCu1AMbAIKLBg5FrW50rMO-S1MVNxAnR4EAfk77jYp7-4sUT2fyyCxzlTkRRVH5sj2V0HvuwZxOWLQ7-XWN1v9rtDf3D9_1BWNoVh-b7UFsLOLvLNm0P3e34whSw2kVh5LnWe4Vy6McvrRxVRDPm9Zhlof9ysqVu7X-rMSYFT8UarwP3itaTTd3byhgahe74NTZLRvaynq2RY8dp1x9XX7IPcCa8lHwTqsLYveOAmy5ZCCwEsacXvsIb70DkaMMdjUDGUCe-VO2Nq0GNgspIy7s1O_ZAsS8j5v1qiwKjs2QLYho7wVHjv26yQKsUNMOVho6vlDkaAYgsx62Ni0zOcXmzQ4yvMMsm98OPqDu4uo4ukO9JVUIcD3YxkLr2pJLwu_WKZLqziDJadgEnkO8kdlxozvfoX88SiRmAK-AfPd1P1CQozcOhGyyW9nv2fKP3DBBMGv5KieTSdqZs552CTopIOS1dkiCbYRIGVHlRwgtHCjhJ7tkS4qirMkP4gkMfr6KGSNyGQF8QhVmasUP-UMV2pjXK7PVxpzdTYfMMjoVvf9PhMUMlkgwhFFq7]--></g></svg>